<?xml version="1.0" encoding="UTF-8" standalone="no" ?>
<!DOCTYPE svg PUBLIC "-//W3C//DTD SVG 1.1//EN" "http://www.w3.org/Graphics/SVG/1.1/DTD/svg11.dtd">
<svg xmlns="http://www.w3.org/2000/svg" xmlns:xlink="http://www.w3.org/1999/xlink" version="1.1" width="1080" height="1080" viewBox="0 0 1080 1080" xml:space="preserve">
<desc>Created with Fabric.js 5.2.4</desc>
<defs>
</defs>
<g transform="matrix(1 0 0 1 540 540)" id="1c901dc8-1abe-4074-8758-fd629dd9bb1d"  >
<rect style="stroke: none; stroke-width: 1; stroke-dasharray: none; stroke-linecap: butt; stroke-dashoffset: 0; stroke-linejoin: miter; stroke-miterlimit: 4; fill: rgb(255,255,255); fill-rule: nonzero; opacity: 1; visibility: hidden;" vector-effect="non-scaling-stroke"  x="-540" y="-540" rx="0" ry="0" width="1080" height="1080" />
</g>
<g transform="matrix(1 0 0 1 540 540)" id="7ed9cb75-749e-4ff3-bd28-c7aac821e568"  >
</g>
<g transform="matrix(1 0 0 1 540 540)"  >
<g style="" vector-effect="non-scaling-stroke"   >
		<g transform="matrix(1 0 0 1 0 -179.05)" id="Path_2275"  >
<path style="stroke: none; stroke-width: 1; stroke-dasharray: none; stroke-linecap: butt; stroke-dashoffset: 0; stroke-linejoin: miter; stroke-miterlimit: 4; fill: rgb(221,221,221); fill-rule: nonzero; opacity: 1;" vector-effect="non-scaling-stroke"  transform=" translate(-110.6, -94.8)" d="M 157.7 94.8 C 157.7 120.8 136.6 141.9 110.6 141.9 C 84.6 141.9 63.49999999999999 120.80000000000001 63.49999999999999 94.80000000000001 C 63.49999999999999 68.80000000000001 84.6 47.70000000000001 110.6 47.70000000000001 C 110.6 47.70000000000001 110.6 47.70000000000001 110.6 47.70000000000001 C 136.6 47.8 157.7 68.8 157.7 94.8 z" stroke-linecap="round" />
</g>
		<g transform="matrix(1 0 0 1 0 53.65)" id="Path_2276"  >
<path style="stroke: none; stroke-width: 1; stroke-dasharray: none; stroke-linecap: butt; stroke-dashoffset: 0; stroke-linejoin: miter; stroke-miterlimit: 4; fill: rgb(221,221,221); fill-rule: nonzero; opacity: 1;" vector-effect="non-scaling-stroke"  transform=" translate(-110.6, -327.5)" d="M 215.3 304.6 L 178.8 165.90000000000003 C 178.8 165.80000000000004 178.8 165.80000000000004 178.70000000000002 165.70000000000005 C 177.50000000000003 159.50000000000006 172.10000000000002 155.00000000000006 165.8 155.00000000000006 L 55.4 155.00000000000006 C 49.1 155.00000000000006 43.7 159.50000000000006 42.5 165.70000000000005 C 42.5 165.70000000000005 42.5 165.80000000000004 42.4 165.90000000000003 L 5.9 304.6 C 3.9000000000000004 312.40000000000003 8.5 320.3 16.3 322.40000000000003 C 24.1 324.40000000000003 32 319.8 34.1 312.00000000000006 L 63.6 199.80000000000007 L 63.6 262.50000000000006 L 34.8 371.6 L 63.5 371.6 L 63.5 481.5 C 63.5 491.7 71.8 500 82 500 C 92.2 500 100.5 491.7 100.5 481.5 L 100.5 371.8 L 120.6 371.8 L 120.6 481.5 C 120.6 491.7 128.9 500 139.1 500 C 149.29999999999998 500 157.6 491.7 157.6 481.5 L 157.6 371.8 L 186.29999999999998 371.8 L 157.6 262.70000000000005 L 157.6 199.80000000000004 L 187.2 312 C 189.2 319.8 197.2 324.4 205 322.4 C 212.7 320.3 217.3 312.3 215.3 304.6 L 215.3 304.6 z" stroke-linecap="round" />
</g>
</g>
</g>
</svg>